<?xml version="1.0" encoding="UTF-8"?>
<svg id="Layer_2" data-name="Layer 2" xmlns="http://www.w3.org/2000/svg" xmlns:xlink="http://www.w3.org/1999/xlink" viewBox="0 0 556.37 157.19">
  <defs>
    <style>
      .cls-1 {
        fill: url(#linear-gradient);
        stroke: url(#linear-gradient-2);
        stroke-miterlimit: 10;
        stroke-width: 2px;
      }
    </style>
    <linearGradient id="linear-gradient" x1="254.95" y1="-397.9" x2="293.15" y2="-181.68" gradientTransform="translate(0 -221.83) scale(1 -1)" gradientUnits="userSpaceOnUse">
      <stop offset="0" stop-color="#1577ff"/>
      <stop offset=".11" stop-color="#255ce7"/>
      <stop offset=".5" stop-color="#5a0097"/>
      <stop offset="1" stop-color="#c4004e"/>
    </linearGradient>
    <linearGradient id="linear-gradient-2" x1="0" y1="78.59" x2="556.37" y2="78.59" gradientUnits="userSpaceOnUse">
      <stop offset="0" stop-color="#ff007e"/>
      <stop offset=".5" stop-color="#cb00ff"/>
      <stop offset=".99" stop-color="aqua"/>
    </linearGradient>
  </defs>
  <g id="Layer_1-2" data-name="Layer 1">
    <path class="cls-1" d="M7.32,40.82c5.35,0,6.11-1.53,5.35-6.11v-2.29c-4.58-19.86.76-27.51,29.03-27.51h7.64l5.35,28.27h-6.11c-5.35,0-6.11,1.53-5.35,6.11v2.29c4.58,19.86-.76,27.51-29.03,27.51h-7.64L1.21,40.82h6.11ZM56.98,37.76c0-19.1,15.28-33.62,35.15-33.62s35.15,13.75,35.15,33.62-15.28,33.62-35.15,33.62-35.15-13.75-35.15-33.62ZM97.48,37.76c0-3.06-2.29-5.35-5.35-5.35s-5.35,2.29-5.35,5.35,2.29,5.35,5.35,5.35,5.35-2.29,5.35-5.35ZM164.71,39.29h22.92v12.22h-22.92v19.1h-30.56V6.44h53.48l5.35,29.03h-29.03v4.58l.76-.76ZM241.88,33.94v35.15h-30.56v-35.15h-16.81l5.35-29.03h53.48l5.35,29.03h-16.81ZM294.6,4.95l7.64,15.28,8.4-16.81,8.4,16.81,7.64-15.28h33.62l-37.44,68-12.99-24.45-12.99,24.45L259.45,4.95h35.15ZM377.11,1.85l43.55,68h-35.91l-7.64-12.99-7.64,12.99h-35.91L377.11,1.85ZM457.34,57.63h-5.35v11.46h-30.56V4.91h36.67c23.69,0,32.09,10.7,32.09,25.98s-1.53,13.75-6.11,18.34l12.99,19.86h-32.85l-6.11-11.46h-.76ZM451.99,27.83v9.93h2.29c3.82,0,5.35-2.29,5.35-4.58s-1.53-4.58-5.35-4.58h-2.29v-.76ZM528.39,48.46h26.74l-4.58,21.39h-53.48V5.67h53.48l4.58,21.39h-26.74v4.58h22.92v12.22h-22.92v4.58h0ZM112.76,83.61c18.34,0,32.09,11.46,35.15,27.51l-29.8,4.58c0-1.53-2.29-3.06-4.58-3.06s-5.35,2.29-5.35,5.35,2.29,5.35,5.35,5.35,3.82-1.53,4.58-3.06l29.8,3.82c-3.06,16.04-16.81,27.51-35.15,27.51s-35.15-13.75-35.15-33.62,15.28-33.62,35.15-33.62v-.76ZM223.54,85.13v64.18h-30.56v-25.98h-8.4v25.98h-30.56v-64.18h30.56v25.98h8.4v-25.98h30.56ZM262.51,85.13v64.18h-30.56v-64.18h30.56ZM329.74,140.91l8.4,15.28h-32.85l-3.06-6.11c-19.1-1.53-32.85-15.28-32.85-33.62s15.28-33.62,35.15-33.62,35.15,13.75,35.15,33.62-3.82,18.34-9.93,24.45ZM299.18,117.22c0,3.06,2.29,5.35,5.35,5.35s5.35-2.29,5.35-5.35-2.29-5.35-5.35-5.35-5.35,2.29-5.35,5.35ZM345.79,85.13h30.56v31.33c0,4.58,1.53,6.11,3.82,6.11s4.58-1.53,4.58-6.11v-31.33h30.56v29.03c0,24.45-14.52,36.67-34.38,36.67s-34.38-12.22-34.38-36.67v-29.03h-.76ZM452.75,127.92h26.74l-4.58,21.39h-53.48v-64.18h53.48l4.58,21.39h-26.74v4.58h22.92v12.22h-22.92v4.58h0Z"/>
  </g>
</svg>