<?xml version="1.0" encoding="UTF-8"?>
<svg id="Layer_1" data-name="Layer 1" xmlns="http://www.w3.org/2000/svg" xmlns:xlink="http://www.w3.org/1999/xlink" viewBox="0 0 75.11 19.4">
  <defs>
    <style>
      .cls-1 {
        fill: url(#New_Gradient_Swatch);
        stroke: url(#New_Gradient_Swatch_copy);
        stroke-miterlimit: 10;
        stroke-width: .1px;
      }
    </style>
    <linearGradient id="New_Gradient_Swatch" data-name="New Gradient Swatch" x1=".06" y1="9.7" x2="75.06" y2="9.7" gradientUnits="userSpaceOnUse">
      <stop offset="0" stop-color="#1577ff"/>
      <stop offset=".11" stop-color="#255ce7"/>
      <stop offset=".5" stop-color="#5a0097"/>
      <stop offset="1" stop-color="#c4004e"/>
    </linearGradient>
    <linearGradient id="New_Gradient_Swatch_copy" data-name="New Gradient Swatch copy" x1="0" y1="9.7" x2="75.11" y2="9.7" gradientUnits="userSpaceOnUse">
      <stop offset="0" stop-color="#ff007e"/>
      <stop offset=".5" stop-color="#cb00ff"/>
      <stop offset=".99" stop-color="aqua"/>
    </linearGradient>
  </defs>
  <path class="cls-1" d="M6.55,2.84c0,.23-.02.47-.07.73l-.7,3.6h-1.03l.4-2.08H1.48l-.4,2.08H.06L.87,3.03C1.18,1.44,2.23.48,3.81.48s2.74.8,2.74,2.36ZM5.34,4.15l.13-.68c.04-.21.05-.38.05-.52,0-.93-.58-1.52-1.76-1.52-1.04,0-1.7.62-1.91,1.7l-.2,1.03h3.68ZM10.34,3.61c-.01-.38-.35-.67-1.03-.67-.61,0-.99.25-.99.64,0,.45.5.54,1.04.68.87.23,1.66.5,1.66,1.4,0,1.1-.87,1.64-2.07,1.64s-2.12-.57-2.12-1.57h.97c0,.4.42.71,1.18.71.68,0,1.06-.25,1.06-.63,0-.47-.59-.58-1.06-.7-.89-.23-1.65-.49-1.65-1.39,0-1.08.83-1.64,2-1.64s1.96.55,1.96,1.52h-.95ZM12.85,5.21c-.02.12-.04.22-.04.35,0,.59.4.86.95.86.59,0,.99-.29,1.13-1.01l.04-.22h.96l-.06.31c-.24,1.2-1.01,1.81-2.12,1.81s-1.89-.57-1.89-1.63c0-.16.02-.36.06-.56l.91-4.66h.95l-.34,1.76h2.73l-.17.87h-2.72l-.41,2.12ZM17.83.05h.96l-.55,2.83c.41-.51.96-.79,1.6-.79,1.22,0,2.06.78,2.06,2.03,0,.25-.03.47-.07.68l-.46,2.38h-.96l.47-2.45c.03-.16.05-.3.05-.45,0-.83-.53-1.3-1.38-1.3-.77,0-1.39.49-1.59,1.47l-.54,2.73h-.96L17.83.05ZM27.97,4.37c0,.19-.02.38-.06.57l-.02.1h-4.34c.06.87.67,1.37,1.63,1.37.6,0,1.04-.2,1.38-.63h1.06c-.47.94-1.42,1.51-2.58,1.51-1.49,0-2.48-.97-2.48-2.36,0-1.57,1.26-2.86,2.93-2.86,1.37,0,2.48.88,2.48,2.29ZM23.67,4.19h3.32c-.11-.78-.74-1.22-1.55-1.22-.88,0-1.51.52-1.77,1.22ZM29.56,5.21c-.02.12-.04.22-.04.35,0,.59.4.86.95.86.59,0,.99-.29,1.13-1.01l.04-.22h.96l-.06.31c-.24,1.2-1.01,1.81-2.12,1.81s-1.89-.57-1.89-1.63c0-.16.02-.36.06-.56l.91-4.66h.95l-.34,1.76h2.73l-.17.87h-2.72l-.41,2.12ZM34.13,2.22h.95l-.96,4.96h-.95l.96-4.96ZM34.21.83c0-.43.35-.73.74-.73.37,0,.6.25.6.58,0,.42-.34.75-.73.75-.37,0-.61-.25-.61-.6ZM35.52,5c0-1.63,1.27-2.91,2.9-2.91,1.26,0,2.29.73,2.47,1.93h-.98c-.18-.63-.74-1.04-1.55-1.04-1.09,0-1.87.91-1.87,1.96,0,.86.6,1.49,1.62,1.49.73,0,1.34-.39,1.67-1.04h.96c-.38,1.17-1.43,1.93-2.71,1.93-1.53,0-2.51-1-2.51-2.31ZM45.21.61h2.13c1.88,0,3.15,1.08,3.15,2.95,0,2.05-1.55,3.61-3.75,3.61h-2.79l1.26-6.56ZM46.8,6.23c1.64,0,2.64-1.15,2.64-2.61,0-1.31-.8-2.07-2.15-2.07h-1.23l-.89,4.67h1.64ZM56.26,4.37c0,.19-.02.38-.06.57l-.02.1h-4.34c.06.87.67,1.37,1.63,1.37.6,0,1.04-.2,1.38-.63h1.06c-.47.94-1.42,1.51-2.58,1.51-1.49,0-2.48-.97-2.48-2.36,0-1.57,1.26-2.86,2.93-2.86,1.37,0,2.48.88,2.48,2.29ZM51.95,4.19h3.32c-.11-.78-.74-1.22-1.55-1.22-.88,0-1.51.52-1.77,1.22ZM60.07,3.61c-.01-.38-.35-.67-1.03-.67-.61,0-.99.25-.99.64,0,.45.5.54,1.04.68.87.23,1.66.5,1.66,1.4,0,1.1-.87,1.64-2.07,1.64s-2.12-.57-2.12-1.57h.97c0,.4.42.71,1.18.71.68,0,1.06-.25,1.06-.63,0-.47-.59-.58-1.06-.7-.89-.23-1.65-.49-1.65-1.39,0-1.08.83-1.64,2-1.64s1.96.55,1.96,1.52h-.95ZM62.39,2.22h.95l-.96,4.96h-.95l.96-4.96ZM62.47.83c0-.43.35-.73.74-.73s.6.25.6.58c0,.42-.34.75-.73.75-.37,0-.61-.25-.61-.6ZM63.44,7.76h.96c.19.55.84.82,1.55.82,1.43,0,1.7-1.1,1.8-1.6l.12-.58c-.41.54-1.06.85-1.82.85-1.2,0-2.3-.78-2.3-2.27,0-1.6,1.25-2.91,2.95-2.91,1.37,0,2.45.86,2.45,2.31,0,.2-.02.39-.06.6l-.4,2.05c-.33,1.71-1.41,2.38-2.79,2.38-1.28,0-2.26-.59-2.47-1.66ZM68.22,4.49c0-.94-.63-1.52-1.57-1.52-1.18,0-1.91.94-1.91,1.92s.65,1.48,1.58,1.48c1.15,0,1.9-.86,1.9-1.88ZM74.04,4.72c.02-.1.05-.3.05-.48,0-.8-.54-1.26-1.34-1.26s-1.41.48-1.61,1.46l-.54,2.74h-.96l.55-2.83c.29-1.49,1.26-2.26,2.6-2.26s2.28.71,2.28,2.06c0,.23-.03.47-.07.67l-.46,2.36h-.96l.47-2.46ZM14.66,17.5c0-.05,0-.11,0-.16h1.02v.07c0,.72.68.99,1.43.99.85,0,1.39-.34,1.39-.97,0-.68-.59-.81-1.3-1.03-1-.31-1.85-.62-1.85-1.8,0-1.25.97-2.08,2.36-2.08,1.21,0,2.25.64,2.25,1.82v.14h-.99v-.04c0-.56-.44-.97-1.3-.97-.79,0-1.29.35-1.29.97s.48.78,1.29,1.03c1.05.33,1.87.63,1.87,1.81,0,1.29-.99,2.07-2.46,2.07-1.32,0-2.43-.63-2.43-1.85ZM23.18,14.13c1.38,0,2.49.89,2.49,2.37,0,1.58-1.26,2.85-2.92,2.85-1.39,0-2.5-.89-2.5-2.36,0-1.58,1.26-2.86,2.93-2.86ZM24.7,16.53c0-.9-.58-1.53-1.55-1.53-1.16,0-1.92.9-1.92,1.93,0,.9.59,1.53,1.55,1.53,1.16,0,1.92-.89,1.92-1.93ZM30.37,14.34c.06-.2.07-.37.07-.49,0-.69-.46-1-1.13-1-.61,0-1.08.35-1.23,1.14l-.18.95h2.7l-.16.87h-2.71l-.66,3.4h-.97l1.03-5.32c.25-1.3,1.11-1.94,2.23-1.94,1.22,0,2.06.61,2.06,1.78,0,.19-.02.41-.07.6h-.96ZM32.15,17.25c-.02.12-.04.22-.04.35,0,.59.4.86.95.86.59,0,.99-.29,1.13-1.01l.04-.22h.96l-.06.31c-.24,1.2-1.01,1.81-2.12,1.81s-1.89-.57-1.89-1.63c0-.16.02-.36.06-.56l.91-4.66h.95l-.34,1.76h2.73l-.17.87h-2.72l-.41,2.12ZM44.14,14.26l-.59,3.08c-.26,1.37-1.15,2.01-2.19,2.01-.8,0-1.44-.35-1.73-1-.41.67-1.05,1.01-1.84,1.01-1.05,0-1.85-.61-1.85-1.79,0-.18.02-.42.06-.62l.52-2.69h.97l-.53,2.75c-.03.15-.04.31-.04.4,0,.7.44,1.05,1.05,1.05s1.13-.38,1.29-1.22l.56-2.98h.96l-.53,2.76c-.02.11-.04.23-.04.37,0,.72.49,1.07,1.09,1.07s1.1-.37,1.26-1.21l.58-2.99h.96ZM48.6,18.31c-.44.69-1.14,1.03-1.93,1.03-1.21,0-2.3-.83-2.3-2.3,0-1.58,1.25-2.92,2.96-2.92,1.37,0,2.46.87,2.46,2.31,0,.2-.02.39-.06.6l-.43,2.18h-.88l.18-.9ZM48.84,16.53c0-.9-.6-1.53-1.55-1.53-1.16,0-1.92.92-1.92,1.94,0,.91.61,1.51,1.55,1.51,1.14,0,1.92-.89,1.92-1.93ZM50.86,16.08c.25-1.31,1.11-1.96,2.23-1.96,1.22,0,2.05.62,2.05,1.8,0,.11-.01.23-.03.43h-.95c.02-.11.03-.21.03-.34,0-.69-.46-1-1.14-1-.6,0-1.06.33-1.22,1.16l-.59,3.04h-.96l.6-3.13ZM60.82,16.41c0,.19-.02.38-.06.57l-.02.1h-4.34c.06.87.67,1.37,1.63,1.37.6,0,1.04-.2,1.38-.63h1.06c-.47.94-1.42,1.51-2.58,1.51-1.49,0-2.48-.97-2.48-2.36,0-1.58,1.26-2.86,2.93-2.86,1.37,0,2.48.88,2.48,2.29ZM56.51,16.23h3.32c-.11-.78-.74-1.22-1.55-1.22-.88,0-1.51.52-1.77,1.22Z"/>
</svg>